<svg xmlns="http://www.w3.org/2000/svg" xmlns:xlink="http://www.w3.org/1999/xlink" width="1245.368" height="1086" viewBox="0 0 1245.368 1086"><defs><style>.a{fill:none;}.b{clip-path:url(#a);}.c,.d{fill:#52437b;}.c{opacity:0.77;}</style><clipPath id="a"><rect class="a" width="1245.368" height="1086"/></clipPath></defs><g class="b"><path class="c" d="M3790.756,444s-55.507,58.848-72.82,107.432c-13.848,47.153,10.631,88.747,79.727,157.833,133.39,133.372,0,258.847,0,258.847s-144.241,157.413-6.907,275.788,0,284.1,0,284.1H2611.579V444Z" transform="translate(-2611.579 -444)"/><path class="d" d="M3768.045,444s-53.588,44.222-70.567,92.806c-13.582,47.153,2.8,112.422,70.567,181.508,130.821,133.372,0,241.485,0,241.485s-134.689,165.725,0,284.1-46.6,284.1-46.6,284.1H2611.579V444Z" transform="translate(-2611.579 -442)"/></g></svg>